<svg width="26" height="26" viewBox="0 0 26 26" fill="none" xmlns="http://www.w3.org/2000/svg">
<path d="M4.92871 7.5C6.41441 3.69531 10.1154 1 14.4458 1C20.0864 1 24.6591 5.57309 24.6591 11.2143C24.6591 12.6826 24.3493 14.0786 23.7915 15.3404L24.661 21.4276L19.4449 20.1234C19.0337 20.3547 18.605 20.5583 18.1611 20.7317" stroke="white" stroke-width="1.39286" stroke-linecap="round" stroke-linejoin="round"/>
<path d="M1.00137 17.439C1.00137 18.4772 1.22042 19.4643 1.61481 20.3565L1 24.6606L4.68819 23.7384C5.73302 24.3261 6.93882 24.6612 8.22291 24.6612C12.2113 24.6612 15.4444 21.4277 15.4444 17.439C15.4444 13.4503 12.2113 10.2168 8.22291 10.2168C4.23456 10.2168 1.00137 13.4503 1.00137 17.439Z" fill="white" stroke="white" stroke-width="0.928571" stroke-linecap="round" stroke-linejoin="round"/>
</svg>
